<svg xmlns="http://www.w3.org/2000/svg" viewBox="0 0 64 64">
  <rect width="64" height="64" fill="#ffffff"/>
  <g fill="#000000">
    <!-- pins -->
    <rect x="12" y="20" width="6" height="3"/>
    <rect x="12" y="28" width="6" height="3"/>
    <rect x="12" y="36" width="6" height="3"/>
    <rect x="12" y="44" width="6" height="3"/>
    <rect x="46" y="20" width="6" height="3"/>
    <rect x="46" y="28" width="6" height="3"/>
    <rect x="46" y="36" width="6" height="3"/>
    <rect x="46" y="44" width="6" height="3"/>
    <rect x="20" y="12" width="3" height="6"/>
    <rect x="28" y="12" width="3" height="6"/>
    <rect x="36" y="12" width="3" height="6"/>
    <rect x="44" y="12" width="3" height="6"/>
    <rect x="20" y="46" width="3" height="6"/>
    <rect x="28" y="46" width="3" height="6"/>
    <rect x="36" y="46" width="3" height="6"/>
    <rect x="44" y="46" width="3" height="6"/>
    <!-- chip body -->
    <rect x="18" y="18" width="32" height="32" rx="2"/>
  </g>
  <!-- notch indicator (top-left dot) -->
  <circle cx="24" cy="24" r="2" fill="#ffffff"/>
</svg>
